<?xml version="1.0" encoding="UTF-8" standalone="no"?>
<!DOCTYPE svg PUBLIC "-//W3C//DTD SVG 1.1//EN" "http://www.w3.org/Graphics/SVG/1.1/DTD/svg11.dtd">
<svg version="1.1" xmlns="http://www.w3.org/2000/svg" xmlns:xlink="http://www.w3.org/1999/xlink" preserveAspectRatio="xMidYMid meet" viewBox="0 0 630 170" width="630" height="170"><defs><path d="M339.7 4.36C369.48 12.73 409.98 40.58 362.59 32.46C315.2 24.33 280.56 73 314.42 104.26C318.6 108.11 322.25 110.86 325.36 112.5C358.73 130.1 398.26 131.68 432.93 116.78C444.84 111.66 448.15 110.24 465.66 102.72C482.84 95.34 502.25 95.17 519.55 102.26C593.53 132.59 629.19 151.68 626.54 159.55C623.3 169.13 417.96 171.27 10.52 165.96C4.96 165.89 1.09 160.42 2.87 155.16C2.87 155.16 2.87 155.16 2.87 155.16C15.46 140.85 122.35 70.69 145.05 73.39C167.75 76.08 127.25 102.97 153.4 117.33C179.54 131.7 265.02 -16.63 339.7 4.36Z" id="dEDt1O1DT"></path></defs><g><g><g><use xlink:href="#dEDt1O1DT" opacity="1" fill="#bb7f3a" fill-opacity="1"></use></g></g></g></svg>