<?xml version="1.0" encoding="UTF-8" standalone="no"?>
<!DOCTYPE svg PUBLIC "-//W3C//DTD SVG 1.1//EN" "http://www.w3.org/Graphics/SVG/1.1/DTD/svg11.dtd">
<svg version="1.1" xmlns="http://www.w3.org/2000/svg" xmlns:xlink="http://www.w3.org/1999/xlink" preserveAspectRatio="xMidYMid meet" viewBox="0 0 680 183.49" width="680" height="183.49"><defs><path d="M374.16 11.27C403.94 19.64 444.44 47.49 397.05 39.36C349.66 31.24 315.02 79.9 348.88 111.16C353.06 115.02 356.7 117.77 359.81 119.41C393.18 137.01 432.72 138.58 467.38 123.69C479.3 118.57 482.61 117.15 500.12 109.62C516.93 102.4 536.21 103.92 551.67 113.69C566.41 122.99 585.67 135.16 600.35 144.43C616.85 154.85 635.26 161.89 654.51 165.14C655.09 165.23 639.05 162.53 642.48 163.11C652.41 164.78 662.49 165.45 672.56 165.11C672.75 165.1 672.84 165.1 672.85 165.1C680.52 166.38 676.44 172.55 675.67 180.38C675.64 180.7 456.13 181.56 17.16 182.94C10.5 182.96 4.63 178.57 2.78 172.17C2.37 170.76 3.41 174.33 2.78 172.17C1.76 168.65 4.42 165.14 8.09 165.18C16.43 165.27 9.58 165.19 11.79 165.22C36.26 165.48 59.97 156.73 78.4 140.63C118.16 105.89 151.86 85.78 179.5 80.29C179.5 80.29 167.93 78.92 179.5 80.29C202.2 82.98 161.71 109.88 187.85 124.24C214 138.6 299.48 -9.73 374.16 11.27Z" id="e2e4GtjPUx"></path></defs><g><g><g><use xlink:href="#e2e4GtjPUx" opacity="1" fill="#bb7f3a" fill-opacity="1"></use></g></g></g></svg>